<?xml version="1.0" encoding="UTF-8" standalone="no"?>
<!-- Created with Inkscape (http://www.inkscape.org/) -->

<svg
   xmlns:dc="http://purl.org/dc/elements/1.1/"
   xmlns:cc="http://creativecommons.org/ns#"
   xmlns:rdf="http://www.w3.org/1999/02/22-rdf-syntax-ns#"
   xmlns:svg="http://www.w3.org/2000/svg"
   xmlns="http://www.w3.org/2000/svg"
   xmlns:sodipodi="http://sodipodi.sourceforge.net/DTD/sodipodi-0.dtd"
   xmlns:inkscape="http://www.inkscape.org/namespaces/inkscape"
   width="208"
   height="208"
   id="svg2"
   version="1.1"
   inkscape:version="0.92.2 (5c3e80d, 2017-08-06)"
   sodipodi:docname="BABY - Copy.svg">
  <defs
     id="defs4" />
  <sodipodi:namedview
     id="base"
     pagecolor="#ffffff"
     bordercolor="#666666"
     borderopacity="1.0"
     inkscape:pageopacity="0.0"
     inkscape:pageshadow="2"
     inkscape:zoom="1.979899"
     inkscape:cx="-45.861854"
     inkscape:cy="116.94543"
     inkscape:document-units="px"
     inkscape:current-layer="layer1"
     showgrid="false"
     fit-margin-top="0"
     fit-margin-left="0"
     fit-margin-right="0"
     fit-margin-bottom="0"
     inkscape:window-width="2048"
     inkscape:window-height="1085"
     inkscape:window-x="1699"
     inkscape:window-y="71"
     inkscape:window-maximized="1" />
  <metadata
     id="metadata7">
    <rdf:RDF>
      <cc:Work
         rdf:about="">
        <dc:format>image/svg+xml</dc:format>
        <dc:type
           rdf:resource="http://purl.org/dc/dcmitype/StillImage" />
        <dc:title />
      </cc:Work>
    </rdf:RDF>
  </metadata>
  <g
     inkscape:label="Layer 1"
     inkscape:groupmode="layer"
     id="layer1"
     transform="translate(-171.06147,-188.09778)">
    <path
       style="fill:#000000;stroke-width:1.64906871"
       d="m 339.09206,220.66769 c -1.93095,0 -3.85189,0.73795 -5.55202,2.12977 -1.72503,1.40995 -2.82263,3.13008 -3.78904,4.64557 -0.56398,0.88555 -1.09888,1.72198 -1.61509,2.24308 -2.53466,2.53297 -4.28064,2.85763 -5.51745,2.85763 -1.06041,0 -2.1426,-0.25406 -3.39919,-0.54925 -1.49236,-0.35126 -3.18563,-0.74733 -5.13143,-0.74898 -4.50196,0 -9.0632,2.26904 -14.21324,7.04805 -2.1899,-1.96734 -5.55293,-1.91931 -7.65874,0.1882 l -7.15366,7.15367 c -2.28731,-1.07355 -4.79342,-1.65735 -7.39565,-1.65735 -4.65531,0 -9.03405,1.81492 -12.32734,5.10647 l -60.64964,60.65157 c -6.79746,6.79583 -6.79746,17.85699 0,24.65279 l 29.58832,29.58641 c 3.29314,3.29648 7.67204,5.10839 12.32735,5.10839 4.65532,0 9.03614,-1.81355 12.32927,-5.10839 l 60.64964,-60.64389 c 3.29484,-3.29483 5.1084,-7.67423 5.1084,-12.3312 0,-2.60057 -0.58402,-5.10619 -1.65927,-7.39179 l 7.15367,-7.15367 c 2.10751,-2.10751 2.15911,-5.46686 0.19012,-7.65683 8.63782,-9.30569 7.35392,-14.85341 6.29522,-19.35043 -0.7849,-3.33441 -1.25855,-5.34586 2.30838,-8.91279 0.51776,-0.51945 1.35369,-1.05523 2.23924,-1.62086 1.5171,-0.96471 3.23391,-2.06028 4.64556,-3.7852 3.06897,-3.74669 2.82162,-8.22643 -0.64143,-11.68785 -1.81237,-1.81396 -3.93201,-2.77312 -6.13198,-2.77312 z m 0,4.18465 c 1.08344,0 2.1508,0.52245 3.17642,1.5498 2.42583,2.4258 1.5387,4.64161 0.36296,6.0763 -0.98773,1.20712 -2.34782,2.07203 -3.66037,2.9114 -1.08514,0.68932 -2.10708,1.34308 -2.94981,2.18739 -5.21111,5.21435 -4.26289,9.26 -3.42032,12.82859 0.90874,3.86047 1.84428,7.84152 -5.15447,15.41735 l -24.59901,-24.60093 c 5.59683,-5.15828 9.06471,-5.79563 11.23653,-5.79399 1.46113,0 2.77956,0.30943 4.17313,0.63759 1.38352,0.32487 2.81627,0.66447 4.36134,0.66447 2.99476,0 5.68434,-1.29951 8.47302,-4.08479 0.84102,-0.84268 1.49264,-1.86663 2.18354,-2.95173 0.83933,-1.311 1.70465,-2.67039 2.91332,-3.65653 0.66137,-0.5409 1.69831,-1.18492 2.90372,-1.18492 z m -61.42551,26.09889 c 2.79363,0 5.42209,1.08753 7.39757,3.06311 l 29.58641,29.59025 c 1.97548,1.9756 3.06503,4.60212 3.06503,7.39564 0,2.79517 -1.08786,5.42198 -3.06503,7.39757 l -60.64772,60.64965 c -1.97734,1.97558 -4.6041,3.06119 -7.39757,3.06119 -2.79516,0 -5.42192,-1.08561 -7.39756,-3.06119 l -29.58641,-29.58833 c -1.97733,-1.97723 -3.06503,-4.60212 -3.06503,-7.39564 0,-2.79518 1.08748,-5.422 3.06311,-7.39757 L 270.269,254.01434 c 1.97717,-1.97558 4.60409,-3.06311 7.39755,-3.06311 z m -25.26924,27.84456 -39.32499,39.32117 c -2.17507,2.17677 -2.17677,5.71573 0,7.8892 l 29.58641,29.58641 c 1.057,1.05541 2.45592,1.6343 3.94843,1.6343 1.48912,0.002 2.8893,-0.58055 3.9446,-1.6343 l 60.65157,-60.64965 c 2.17337,-2.17512 2.17337,-5.71408 0,-7.8892 l -8.26177,-8.25793 z"
       id="path5799-8"
       inkscape:connector-curvature="0" />
  </g>
</svg>
