<?xml version="1.0" encoding="UTF-8" standalone="no"?>
<!-- Created with Inkscape (http://www.inkscape.org/) -->

<svg
   xmlns:dc="http://purl.org/dc/elements/1.1/"
   xmlns:cc="http://creativecommons.org/ns#"
   xmlns:rdf="http://www.w3.org/1999/02/22-rdf-syntax-ns#"
   xmlns:svg="http://www.w3.org/2000/svg"
   xmlns="http://www.w3.org/2000/svg"
   xmlns:sodipodi="http://sodipodi.sourceforge.net/DTD/sodipodi-0.dtd"
   xmlns:inkscape="http://www.inkscape.org/namespaces/inkscape"
   width="59.787815"
   height="70.157478"
   id="svg2"
   version="1.1"
   inkscape:version="0.48.5 r10040"
   sodipodi:docname="YPERORIA.svg">
  <defs
     id="defs4" />
  <sodipodi:namedview
     id="base"
     pagecolor="#ffffff"
     bordercolor="#666666"
     borderopacity="1.0"
     inkscape:pageopacity="0.0"
     inkscape:pageshadow="2"
     inkscape:zoom="1.979899"
     inkscape:cx="85.069197"
     inkscape:cy="48.120637"
     inkscape:document-units="px"
     inkscape:current-layer="layer1"
     showgrid="false"
     fit-margin-top="0"
     fit-margin-left="0"
     fit-margin-right="0"
     fit-margin-bottom="0"
     inkscape:window-width="1920"
     inkscape:window-height="1013"
     inkscape:window-x="-9"
     inkscape:window-y="-9"
     inkscape:window-maximized="1" />
  <metadata
     id="metadata7">
    <rdf:RDF>
      <cc:Work
         rdf:about="">
        <dc:format>image/svg+xml</dc:format>
        <dc:type
           rdf:resource="http://purl.org/dc/dcmitype/StillImage" />
        <dc:title></dc:title>
      </cc:Work>
    </rdf:RDF>
  </metadata>
  <g
     inkscape:label="Layer 1"
     inkscape:groupmode="layer"
     id="layer1"
     transform="translate(-730.50503,-561.3806)">
    <g
       id="g3051"
       transform="translate(730.51726,561.34517)">
      <path
         id="path3053"
         d="M 37.381889,7.7952751 C 36.566928,3.3307085 32.66929,0.03543307 27.992125,0.03543307 c -2.940945,0 -5.527559,1.31102353 -7.299212,3.40157463 -0.602362,-0.1771654 -1.240158,-0.2480315 -1.913386,-0.2480315 -3.188976,0 -5.988189,1.559055 -7.688976,4.0039368 -0.283465,0 -0.531496,-0.070866 -0.814961,-0.070866 -4.1456689,0 -7.4409444,3.224409 -7.6181098,7.299212 l 41.3858258,0 C 43.653542,10.948818 40.85433,8.220472 37.381889,7.7952751 z"
         style="fill:#31706d;fill-opacity:1;fill-rule:nonzero;stroke:none"
         inkscape:connector-curvature="0" />
      <path
         id="path3055"
         d="m 48.330707,27.425195 -3.93307,0 -0.496063,-8.255905 -41.1377945,0 L 0,64.133854 c -0.21259842,3.259843 2.3740157,6.059055 5.7047243,6.059055 l 35.2913377,0 c 3.259842,0 5.917323,-2.728346 5.704724,-6.059055 l -0.318897,-5.385826 2.019685,0 c 6.271653,0 11.374015,-5.102362 11.374015,-11.374015 l 0,-8.574803 C 59.704723,32.527557 54.602361,27.425195 48.330707,27.425195 z M 14.846456,60.803146 c 0,1.488189 -1.240157,2.728346 -2.728346,2.728346 -1.452756,0 -2.7283465,-1.240157 -2.7283465,-2.728346 l 0,-32.208659 c 0,-1.452756 1.2755905,-2.728347 2.7283465,-2.728347 1.488189,0 2.728346,1.275591 2.728346,2.728347 l 0,32.208659 z m 11.232283,0 c 0,1.488189 -1.240157,2.728346 -2.728346,2.728346 -1.488189,0 -2.728346,-1.240157 -2.728346,-2.728346 l 0,-32.208659 c 0,-1.452756 1.240157,-2.728347 2.728346,-2.728347 1.488189,0 2.728346,1.275591 2.728346,2.728347 l 0,32.208659 z m 11.161418,0 c 0,1.488189 -1.240158,2.728346 -2.728347,2.728346 -1.488189,0 -2.728346,-1.240157 -2.728346,-2.728346 l 0,-32.208659 c 0,-1.452756 1.240157,-2.728347 2.728346,-2.728347 1.488189,0 2.728347,1.275591 2.728347,2.728347 l 0,32.208659 z M 51.944881,47.374013 c 0,1.984252 -1.629922,3.543307 -3.543307,3.543307 l -2.515748,0 -0.956693,-15.732283 3.472441,0 c 1.984251,0 3.543307,1.629921 3.543307,3.543307 l 0,8.645669 z"
         style="fill:#31706d;fill-opacity:1;fill-rule:nonzero;stroke:none"
         inkscape:connector-curvature="0" />
    </g>
  </g>
</svg>
