<?xml version="1.0" encoding="UTF-8" standalone="no"?>
<!-- Created with Inkscape (http://www.inkscape.org/) -->

<svg
   xmlns:dc="http://purl.org/dc/elements/1.1/"
   xmlns:cc="http://creativecommons.org/ns#"
   xmlns:rdf="http://www.w3.org/1999/02/22-rdf-syntax-ns#"
   xmlns:svg="http://www.w3.org/2000/svg"
   xmlns="http://www.w3.org/2000/svg"
   xmlns:sodipodi="http://sodipodi.sourceforge.net/DTD/sodipodi-0.dtd"
   xmlns:inkscape="http://www.inkscape.org/namespaces/inkscape"
   width="208"
   height="208"
   id="svg2"
   version="1.1"
   inkscape:version="0.92.2 (5c3e80d, 2017-08-06)"
   sodipodi:docname="BEER2.svg">
  <defs
     id="defs4" />
  <sodipodi:namedview
     id="base"
     pagecolor="#ffffff"
     bordercolor="#666666"
     borderopacity="1.0"
     inkscape:pageopacity="0.0"
     inkscape:pageshadow="2"
     inkscape:zoom="1.979899"
     inkscape:cx="106.6206"
     inkscape:cy="101.8612"
     inkscape:document-units="px"
     inkscape:current-layer="layer1"
     showgrid="false"
     fit-margin-top="0"
     fit-margin-left="0"
     fit-margin-right="0"
     fit-margin-bottom="0"
     inkscape:window-width="2048"
     inkscape:window-height="1085"
     inkscape:window-x="1699"
     inkscape:window-y="71"
     inkscape:window-maximized="1" />
  <metadata
     id="metadata7">
    <rdf:RDF>
      <cc:Work
         rdf:about="">
        <dc:format>image/svg+xml</dc:format>
        <dc:type
           rdf:resource="http://purl.org/dc/dcmitype/StillImage" />
        <dc:title />
      </cc:Work>
    </rdf:RDF>
  </metadata>
  <g
     inkscape:label="Layer 1"
     inkscape:groupmode="layer"
     id="layer1"
     transform="translate(-171.06147,-188.09778)">
    <path
       style="fill:#f9f9f9;stroke-width:1.54019988"
       d="m 280.87866,215.7052 c -6.1608,0 -11.55157,2.77347 -15.24805,7.08594 -1.23215,-0.30799 -2.61772,-0.46289 -4.0039,-0.46289 -6.62286,0 -12.47511,3.23374 -16.01758,8.3164 -0.61607,0 -1.07923,-0.15234 -1.69531,-0.15234 -8.62512,0 -15.55524,6.7769 -15.86329,15.24805 h 86.25 c -0.77011,-7.23903 -6.62239,-12.93916 -13.86133,-13.86328 -1.69422,-9.2412 -9.85728,-16.17188 -19.56054,-16.17188 z m -52.67383,39.89258 -5.69922,93.79688 c -0.46206,6.77697 4.92848,12.63085 11.85938,12.63085 h 73.62109 c 6.77689,0 12.32143,-5.69995 11.85937,-12.63085 l -0.61523,-11.24219 h 4.1582 c 13.0917,0 23.71875,-10.62896 23.71875,-23.72071 v -17.86523 c -0.15403,-13.09174 -10.78135,-23.71875 -23.87305,-23.71875 h -8.16211 l -1.07812,-17.25 z m 19.56055,14.01562 c 3.0804,0 5.69726,2.61677 5.69726,5.69727 v 67.1543 c 0,3.0805 -2.61686,5.69726 -5.69726,5.69726 -3.08041,0 -5.69922,-2.61676 -5.69922,-5.69726 v -67.1543 c 0,-3.0805 2.61881,-5.69727 5.69922,-5.69727 z m 23.41015,0 c 3.0804,0 5.69922,2.61677 5.69922,5.69727 v 67.1543 c 0,3.0805 -2.61882,5.69726 -5.69922,5.69726 -3.08039,0 -5.69921,-2.61676 -5.69921,-5.69726 v -67.1543 c 0,-3.0805 2.61882,-5.69727 5.69921,-5.69727 z m 23.25781,0 c 3.08039,0 5.69727,2.61677 5.69727,5.69727 v 67.1543 c 0,3.0805 -2.61688,5.69726 -5.69727,5.69726 -3.08041,0 -5.69922,-2.61676 -5.69922,-5.69726 v -67.1543 c 0,-3.0805 2.61881,-5.69727 5.69922,-5.69727 z m 21.7168,19.40626 h 7.23828 c 4.15854,0 7.39258,3.38809 7.39258,7.39257 v 18.01953 c 0,4.15854 -3.38807,7.39454 -7.39258,7.39454 h -5.23633 z"
       id="path5333-1-9"
       inkscape:connector-curvature="0" />
  </g>
</svg>
