<?xml version="1.0" encoding="UTF-8" standalone="no"?>
<!-- Created with Inkscape (http://www.inkscape.org/) -->

<svg
   xmlns:dc="http://purl.org/dc/elements/1.1/"
   xmlns:cc="http://creativecommons.org/ns#"
   xmlns:rdf="http://www.w3.org/1999/02/22-rdf-syntax-ns#"
   xmlns:svg="http://www.w3.org/2000/svg"
   xmlns="http://www.w3.org/2000/svg"
   xmlns:sodipodi="http://sodipodi.sourceforge.net/DTD/sodipodi-0.dtd"
   xmlns:inkscape="http://www.inkscape.org/namespaces/inkscape"
   width="178.27852"
   height="196.1165"
   id="svg4225"
   version="1.1"
   inkscape:version="0.48.5 r10040"
   sodipodi:docname="New document 6">
  <defs
     id="defs4227" />
  <sodipodi:namedview
     id="base"
     pagecolor="#ffffff"
     bordercolor="#666666"
     borderopacity="1.0"
     inkscape:pageopacity="0.0"
     inkscape:pageshadow="2"
     inkscape:zoom="0.7"
     inkscape:cx="212.38715"
     inkscape:cy="83.711829"
     inkscape:document-units="px"
     inkscape:current-layer="layer1"
     showgrid="false"
     fit-margin-top="0"
     fit-margin-left="0"
     fit-margin-right="0"
     fit-margin-bottom="0"
     inkscape:window-width="2048"
     inkscape:window-height="1085"
     inkscape:window-x="1911"
     inkscape:window-y="363"
     inkscape:window-maximized="1" />
  <metadata
     id="metadata4230">
    <rdf:RDF>
      <cc:Work
         rdf:about="">
        <dc:format>image/svg+xml</dc:format>
        <dc:type
           rdf:resource="http://purl.org/dc/dcmitype/StillImage" />
        <dc:title></dc:title>
      </cc:Work>
    </rdf:RDF>
  </metadata>
  <g
     inkscape:label="Layer 1"
     inkscape:groupmode="layer"
     id="layer1"
     transform="translate(-250.86074,-448.58965)">
    <path
       style="fill:#55b4ae;fill-opacity:1"
       d="m 325.32034,448.58965 c -3.2821,0.36075 -5.669,3.29343 -5.3179,6.5479 0.3227,3.04558 2.8748,5.34536 5.9338,5.34536 l 1.175,-0.0949 13.908,0 0,18.55298 -4.6458,0.6169 c -20.5546,2.7192 -39.0193,12.8298 -52.3295,28.57152 l 7.7799,9.31824 c 12.5498,-15.81764 31.6855,-25.66926 52.0494,-26.5566 39.3714,-1.4171 71.5894,28.46999 73.2606,67.2168 0.8163,18.7608 -5.7229,36.7272 -18.4124,50.566 -12.697,13.8464 -30.0379,21.9061 -48.8043,22.7233 -39.1238,1.5574 -71.5877,-28.4701 -73.2608,-67.217 l -0.2183,-5.5683 13.74,0 -19.2809,-23.19873 -20.0364,23.19873 8.5343,-0.095 5.2628,0 0.095,5.2608 c 0.6929,44.6256 37.5738,80.9285 82.187,80.9285 l 1.288,0 c 21.9526,-0.3416 42.4635,-9.1882 57.7582,-24.9622 15.2824,-15.773 23.4873,-36.5544 23.1428,-58.5127 0.095,-17.9759 -5.9338,-35.61197 -16.819,-49.78301 l -2.8529,-3.72229 13.0406,-13.01204 c 1.602,-1.69793 2.1345,-3.21746 2.0699,-4.81288 -0.095,-1.58976 -0.7213,-3.04193 -1.9029,-4.11434 -2.3367,-2.16957 -6.2773,-2.01965 -8.4222,0.33212 l -13.1261,13.1526 -3.7215,-2.90986 c -11.5087,-9.01366 -25.3009,-14.78224 -39.8486,-16.67851 l -4.645,-0.61699 0,-18.5813 13.8806,0 c 4.028,-0.13285 6.5763,-2.91855 6.4349,-6.21283 -0.133,-3.17859 -2.7534,-5.68028 -5.9319,-5.68028 l -40.3527,0 -1.5945,0 z m 53.2243,79.10999 c -0.3606,0 -0.7308,0.17086 -1.1189,0.47452 l -26.6678,21.23889 -2.2673,-0.3322 c -0.579,-0.095 -1.1732,-0.1138 -1.735,-0.1138 -6.0581,0 -11.2743,4.5433 -12.1171,10.5501 -0.9302,6.6892 3.7764,12.8916 10.4657,13.8236 6.5819,0.9301 12.8773,-3.8628 13.796,-10.4381 0.1708,-1.1352 0.1708,-2.2599 0,-3.357 l -0.3322,-2.2674 21.2968,-26.7247 c 0.4556,-0.56938 0.503,-1.33065 0.1708,-1.93042 l -0.3132,-0.31315 c -0.446,-0.43668 -0.8067,-0.60744 -1.1759,-0.61692 z"
       id="path4331-2-3-1-8-8"
       inkscape:connector-curvature="0" />
  </g>
</svg>
