<?xml version="1.0" encoding="UTF-8" standalone="no"?>
<!-- Created with Inkscape (http://www.inkscape.org/) -->

<svg
   xmlns:dc="http://purl.org/dc/elements/1.1/"
   xmlns:cc="http://creativecommons.org/ns#"
   xmlns:rdf="http://www.w3.org/1999/02/22-rdf-syntax-ns#"
   xmlns:svg="http://www.w3.org/2000/svg"
   xmlns="http://www.w3.org/2000/svg"
   xmlns:sodipodi="http://sodipodi.sourceforge.net/DTD/sodipodi-0.dtd"
   xmlns:inkscape="http://www.inkscape.org/namespaces/inkscape"
   width="208"
   height="208"
   id="svg2"
   version="1.1"
   inkscape:version="0.92.2 (5c3e80d, 2017-08-06)"
   sodipodi:docname="COINS.svg">
  <defs
     id="defs4">
    <pattern
       y="0"
       x="0"
       height="6"
       width="6"
       patternUnits="userSpaceOnUse"
       id="EMFhbasepattern" />
  </defs>
  <sodipodi:namedview
     id="base"
     pagecolor="#ffffff"
     bordercolor="#666666"
     borderopacity="1.0"
     inkscape:pageopacity="0.0"
     inkscape:pageshadow="2"
     inkscape:zoom="1.979899"
     inkscape:cx="144.18586"
     inkscape:cy="147.20448"
     inkscape:document-units="px"
     inkscape:current-layer="layer1"
     showgrid="false"
     fit-margin-top="0"
     fit-margin-left="0"
     fit-margin-right="0"
     fit-margin-bottom="0"
     inkscape:window-width="2048"
     inkscape:window-height="1085"
     inkscape:window-x="1699"
     inkscape:window-y="74"
     inkscape:window-maximized="1" />
  <metadata
     id="metadata7">
    <rdf:RDF>
      <cc:Work
         rdf:about="">
        <dc:format>image/svg+xml</dc:format>
        <dc:type
           rdf:resource="http://purl.org/dc/dcmitype/StillImage" />
        <dc:title></dc:title>
      </cc:Work>
    </rdf:RDF>
  </metadata>
  <g
     inkscape:label="Layer 1"
     inkscape:groupmode="layer"
     id="layer1"
     transform="translate(-171.06147,-188.09778)">
    <path
       id="path820"
       d="m 253.02709,218.76406 c -14.32452,0.11019 -29.0347,2.8649 -41.43092,10.41282 -6.50113,4.13207 -12.17585,10.74339 -13.00226,18.62189 0.0551,29.14489 -0.0551,58.28979 0.0551,87.43469 0.49585,7.6581 5.95019,13.93886 12.06566,18.01584 6.7766,4.57283 14.71018,7.05208 22.58867,8.92528 15.42641,3.25056 31.67923,2.86491 46.83017,-1.43245 1.76302,-0.44075 3.58113,-1.37736 5.28906,-1.59774 14.37961,6.99698 31.89961,6.8868 46.22413,-0.27547 15.26113,-7.32754 26.55547,-22.25811 29.31018,-38.95169 2.75472,-15.64678 -2.03848,-32.39546 -12.6166,-44.18564 -9.80679,-11.23924 -24.51697,-18.07094 -39.50263,-18.07094 0,-3.74642 0.16528,-7.43774 -0.22037,-11.12906 -1.48755,-8.20905 -7.93359,-14.4898 -14.93056,-18.51169 -10.68831,-6.11547 -23.08452,-8.53962 -35.31547,-9.14565 -1.76301,-0.11019 -3.52603,-0.11019 -5.34415,-0.11019 z m 0.71623,11.67999 c 11.51471,0.11019 23.3049,1.9283 33.60754,7.32755 4.13207,2.31396 8.48452,5.34415 9.86188,10.13736 0.44075,4.68301 -3.25057,8.42943 -6.7766,10.96376 -7.87849,5.34415 -17.40981,7.54793 -26.72075,8.70491 -13.49811,1.43245 -27.43697,0.22037 -40.05356,-5.01359 -3.69132,-1.70792 -7.16227,-3.8566 -10.13736,-6.61132 -2.36905,-2.25887 -4.07698,-5.7849 -2.97509,-9.03546 2.14868,-5.12378 7.38263,-8.15397 12.17584,-10.46793 9.69661,-4.35245 20.43999,-5.95019 31.0181,-6.00528 z m -43.5796,37.9049 c 10.24754,7.05207 22.64376,10.02717 34.8196,11.12905 6.88679,0.55094 13.82868,0.44075 20.66037,-0.38566 -2.31396,3.14038 -4.35245,6.50113 -5.95019,10.02717 -12.39621,0.77131 -25.28828,-0.66113 -36.7479,-5.67472 -4.73811,-2.20377 -9.80679,-5.17886 -12.12075,-10.08226 -0.77132,-1.54264 -0.71623,-3.36075 -0.66113,-5.01358 z m 98.17807,0.82641 c 13.05736,-0.11019 26.11471,6.50113 33.77283,17.18943 8.48452,11.45962 10.35772,27.27169 4.90339,40.43924 -5.23396,13.22264 -17.74038,23.19471 -31.78942,25.39848 -13.11245,2.25887 -27.16151,-2.14868 -36.47245,-11.6249 -9.31094,-9.20076 -13.71849,-22.91924 -11.79019,-35.70113 1.92831,-14.10414 11.7351,-26.83093 24.84755,-32.28527 5.23396,-2.25887 10.85358,-3.41585 16.52829,-3.41585 z m -98.17807,20.27471 c 9.86188,6.77661 21.87244,9.80679 33.66262,11.01887 4.02189,0.38566 8.15396,0.49585 12.12075,0.44076 -0.60604,3.14037 -0.9366,6.39094 -0.9917,9.5864 -11.84528,0 -23.96602,-1.65283 -34.65432,-7.16226 -4.02188,-2.25887 -8.53962,-5.34414 -9.91698,-10.13735 -0.33056,-1.21208 -0.16528,-2.53434 -0.22037,-3.74642 z m 0,21.10113 c 10.35773,7.05208 22.86413,10.13735 35.20526,11.18415 3.58113,0.27547 7.21736,0.38566 10.79849,0.27547 0.66113,3.19547 1.76302,6.50113 2.8649,9.42113 -12.34113,0.66113 -25.06791,-0.77132 -36.52753,-5.8951 -4.62792,-2.20376 -9.58641,-5.17886 -11.79018,-10.08226 -0.66113,-1.54263 -0.55094,-3.25056 -0.55094,-4.90339 z m 0,21.15622 c 9.86188,6.7766 21.76225,9.80679 33.55243,11.01887 7.16227,0.66113 14.43472,0.60603 21.59698,-0.22038 2.20377,2.97509 4.73811,5.72981 7.49282,8.20905 -14.76527,3.19547 -30.41206,2.80981 -44.79168,-1.9283 -6.00527,-2.14868 -12.34112,-4.95849 -16.25282,-10.30264 -1.43245,-1.9283 -1.76302,-4.40754 -1.59773,-6.7766 z"
       style="fill:#f9f9f9;fill-opacity:1;fill-rule:nonzero;stroke:none;stroke-width:0.68868417"
       inkscape:connector-curvature="0" />
  </g>
</svg>
