<?xml version="1.0" encoding="UTF-8" standalone="no"?>
<!-- Created with Inkscape (http://www.inkscape.org/) -->

<svg
   xmlns:dc="http://purl.org/dc/elements/1.1/"
   xmlns:cc="http://creativecommons.org/ns#"
   xmlns:rdf="http://www.w3.org/1999/02/22-rdf-syntax-ns#"
   xmlns:svg="http://www.w3.org/2000/svg"
   xmlns="http://www.w3.org/2000/svg"
   xmlns:sodipodi="http://sodipodi.sourceforge.net/DTD/sodipodi-0.dtd"
   xmlns:inkscape="http://www.inkscape.org/namespaces/inkscape"
   width="208"
   height="208"
   id="svg2"
   version="1.1"
   inkscape:version="0.92.2 (5c3e80d, 2017-08-06)"
   sodipodi:docname="FLIPS.svg">
  <defs
     id="defs4" />
  <sodipodi:namedview
     id="base"
     pagecolor="#ffffff"
     bordercolor="#666666"
     borderopacity="1.0"
     inkscape:pageopacity="0.0"
     inkscape:pageshadow="2"
     inkscape:zoom="1.4"
     inkscape:cx="30.213771"
     inkscape:cy="81.029814"
     inkscape:document-units="px"
     inkscape:current-layer="layer1"
     showgrid="false"
     fit-margin-top="0"
     fit-margin-left="0"
     fit-margin-right="0"
     fit-margin-bottom="0"
     inkscape:window-width="2048"
     inkscape:window-height="1085"
     inkscape:window-x="1699"
     inkscape:window-y="71"
     inkscape:window-maximized="1" />
  <metadata
     id="metadata7">
    <rdf:RDF>
      <cc:Work
         rdf:about="">
        <dc:format>image/svg+xml</dc:format>
        <dc:type
           rdf:resource="http://purl.org/dc/dcmitype/StillImage" />
        <dc:title />
      </cc:Work>
    </rdf:RDF>
  </metadata>
  <g
     inkscape:label="Layer 1"
     inkscape:groupmode="layer"
     id="layer1"
     transform="translate(-171.06147,-188.09778)">
    <path
       id="path5489-9-8"
       d="m 265.97537,295.7655 c -0.82525,-8.7479 -0.99031,-17.33053 -0.49515,-26.07843 l 0.49515,-9.90316 c 0.66022,-11.38863 -0.99031,-22.77726 -4.78652,-33.34053 -2.97094,-8.58279 -11.71875,-13.86442 -20.79663,-12.54405 -14.85474,2.14574 -25.91327,14.85474 -25.91327,29.87458 v 12.04874 c 0,12.87411 1.81557,25.74821 5.44674,38.12716 l 11.71873,39.28259 c 2.64085,9.07794 11.71875,14.85473 21.12675,13.53436 10.0682,-1.48547 17.33053,-10.56342 16.34021,-20.79663 z m -8.58274,-16.17527 c -0.16504,0 -0.16504,0 -0.3301,0 -1.48547,0 -2.80589,-1.15526 -2.80589,-2.64074 -0.16506,-7.75757 -2.47579,-26.24337 -10.56337,-33.50579 -2.14569,-1.98063 -5.6118,-1.81553 -7.75747,0.16511 -5.2817,4.62152 -12.70907,15.01984 -8.41769,34.331 0.3301,1.48547 -0.66021,2.97095 -2.14569,3.301 0,0 -0.16506,0 -0.16506,0 -1.48547,0.16511 -2.80589,-0.66026 -3.13599,-2.14574 -3.63116,-16.67026 0.66021,-27.72884 5.11663,-33.83569 2.14569,-2.97094 4.45642,-5.28178 6.43705,-6.93221 1.81559,-1.48547 2.80591,-3.63121 2.80591,-5.94189 v -6.76726 c 0,-1.48548 1.32041,-2.80585 2.80589,-2.80585 1.48547,0 2.80589,1.32037 2.80589,2.80585 v 5.44673 c 0,2.6409 1.15537,5.11669 3.30106,6.43706 13.69936,9.24305 14.35958,37.79711 14.35958,39.28258 0.16504,1.48547 -0.82527,2.64089 -2.31075,2.80584 z"
       inkscape:connector-curvature="0"
       style="fill:#f9f9f9;stroke-width:1.65052664" />
    <path
       id="path5491-2-9"
       d="m 310.53959,237.66691 c -9.0779,-1.48547 -17.82569,3.46611 -21.12673,12.0489 -4.12633,10.56326 -5.9419,21.9519 -5.6118,33.34053 l 0.3301,9.90316 c 0.16506,8.74789 -0.16504,17.49563 -1.32041,26.07842 l -3.79621,29.87443 c -1.32043,10.06826 5.61178,19.47626 15.68,21.29179 9.408,1.65058 18.4859,-3.79616 21.45685,-12.87411 l 12.70904,-38.95237 c 3.96127,-12.21385 6.272,-25.08795 6.43706,-37.96206 l 0.3301,-12.0489 c 0.49516,-15.18479 -10.23326,-28.224 -25.088,-30.69979 z m 16.50527,65.6909 c -0.33011,1.48548 -1.81559,2.31084 -3.136,1.98064 0,0 -0.16506,0 -0.16506,0 -1.48548,-0.33006 -2.31073,-1.81553 -1.98063,-3.30101 4.78653,-19.14605 -2.31074,-29.70947 -7.42737,-34.49595 -2.14568,-1.98063 -5.44674,-2.31084 -7.75747,-0.33021 -8.25263,7.09732 -11.05854,25.58327 -11.38864,33.17559 0,1.48547 -1.32041,2.64089 -2.80589,2.64089 -0.16505,0 -0.16505,0 -0.33011,0 -1.32042,-0.1651 -2.31073,-1.48547 -2.31073,-2.80584 0,-1.32053 1.48547,-29.87458 15.34989,-38.78743 2.14569,-1.32037 3.46611,-3.79616 3.46611,-6.43705 l 0.16506,-5.44674 c 0,-1.48547 1.32041,-2.80584 2.80589,-2.64089 1.48547,0 2.80589,1.32052 2.80589,2.806 l -0.16505,6.7671 c 0,2.31069 0.99032,4.62153 2.64084,6.107 1.98063,1.65043 4.12632,3.96127 6.27201,7.09716 3.96126,5.9419 8.08757,17.00048 3.96126,33.67074 z"
       inkscape:connector-curvature="0"
       style="fill:#f9f9f9;stroke-width:1.65052664" />
  </g>
</svg>
