<?xml version="1.0" encoding="UTF-8" standalone="no"?>
<!-- Created with Inkscape (http://www.inkscape.org/) -->

<svg
   xmlns:dc="http://purl.org/dc/elements/1.1/"
   xmlns:cc="http://creativecommons.org/ns#"
   xmlns:rdf="http://www.w3.org/1999/02/22-rdf-syntax-ns#"
   xmlns:svg="http://www.w3.org/2000/svg"
   xmlns="http://www.w3.org/2000/svg"
   xmlns:sodipodi="http://sodipodi.sourceforge.net/DTD/sodipodi-0.dtd"
   xmlns:inkscape="http://www.inkscape.org/namespaces/inkscape"
   width="208"
   height="208"
   id="svg2"
   version="1.1"
   inkscape:version="0.92.2 (5c3e80d, 2017-08-06)"
   sodipodi:docname="LOCKER - Copy.svg">
  <defs
     id="defs4" />
  <sodipodi:namedview
     id="base"
     pagecolor="#ffffff"
     bordercolor="#666666"
     borderopacity="1.0"
     inkscape:pageopacity="0.0"
     inkscape:pageshadow="2"
     inkscape:zoom="0.9899495"
     inkscape:cx="-46.504734"
     inkscape:cy="195.17648"
     inkscape:document-units="px"
     inkscape:current-layer="layer1"
     showgrid="false"
     fit-margin-top="0"
     fit-margin-left="0"
     fit-margin-right="0"
     fit-margin-bottom="0"
     inkscape:window-width="2048"
     inkscape:window-height="1085"
     inkscape:window-x="1699"
     inkscape:window-y="71"
     inkscape:window-maximized="1" />
  <metadata
     id="metadata7">
    <rdf:RDF>
      <cc:Work
         rdf:about="">
        <dc:format>image/svg+xml</dc:format>
        <dc:type
           rdf:resource="http://purl.org/dc/dcmitype/StillImage" />
        <dc:title />
      </cc:Work>
    </rdf:RDF>
  </metadata>
  <g
     inkscape:label="Layer 1"
     inkscape:groupmode="layer"
     id="layer1"
     transform="translate(-171.06147,-188.09778)">
    <path
       style="fill:#000000;stroke-width:1.16269386"
       inkscape:connector-curvature="0"
       d="m 232.72438,281.25841 v -23.21918 c 0,-22.86557 18.99426,-41.46858 42.33767,-41.46858 23.34223,0 42.3365,18.60301 42.3365,41.46858 v 23.21918 l 11.98185,1.03598 v 86.06673 l -54.31835,4.69454 -54.31952,-4.69454 v -86.06673 z m 35.94672,56.58816 h 6.39094 6.38977 l -3.65952,-13.13853 c 2.15812,-1.00618 3.65952,-3.14223 3.65952,-5.63972 0,-3.45833 -2.86064,-6.25938 -6.38977,-6.25938 -3.53145,0 -6.39094,2.80105 -6.39094,6.25938 0,2.49749 1.50023,4.63354 3.65717,5.63822 z m -23.166,-57.69134 29.55695,-2.55549 29.55577,2.55549 v -22.116 c 0,-15.96306 -13.25885,-28.94981 -29.55577,-28.94981 -16.29809,0 -29.55695,12.98675 -29.55695,28.94981 z"
       id="path5900-7" />
  </g>
</svg>
