<?xml version="1.0" encoding="UTF-8" standalone="no"?>
<!-- Created with Inkscape (http://www.inkscape.org/) -->

<svg
   xmlns:dc="http://purl.org/dc/elements/1.1/"
   xmlns:cc="http://creativecommons.org/ns#"
   xmlns:rdf="http://www.w3.org/1999/02/22-rdf-syntax-ns#"
   xmlns:svg="http://www.w3.org/2000/svg"
   xmlns="http://www.w3.org/2000/svg"
   xmlns:sodipodi="http://sodipodi.sourceforge.net/DTD/sodipodi-0.dtd"
   xmlns:inkscape="http://www.inkscape.org/namespaces/inkscape"
   width="195"
   height="195"
   id="svg2"
   version="1.1"
   inkscape:version="0.48.5 r10040"
   sodipodi:docname="LOCKER.svg">
  <defs
     id="defs4" />
  <sodipodi:namedview
     id="base"
     pagecolor="#ffffff"
     bordercolor="#666666"
     borderopacity="1.0"
     inkscape:pageopacity="0.0"
     inkscape:pageshadow="2"
     inkscape:zoom="3.959798"
     inkscape:cx="125.96533"
     inkscape:cy="96.506318"
     inkscape:document-units="px"
     inkscape:current-layer="layer1"
     showgrid="false"
     fit-margin-top="0"
     fit-margin-left="0"
     fit-margin-right="0"
     fit-margin-bottom="0"
     inkscape:window-width="2048"
     inkscape:window-height="1085"
     inkscape:window-x="1911"
     inkscape:window-y="363"
     inkscape:window-maximized="1" />
  <metadata
     id="metadata7">
    <rdf:RDF>
      <cc:Work
         rdf:about="">
        <dc:format>image/svg+xml</dc:format>
        <dc:type
           rdf:resource="http://purl.org/dc/dcmitype/StillImage" />
        <dc:title></dc:title>
      </cc:Work>
    </rdf:RDF>
  </metadata>
  <g
     inkscape:label="Layer 1"
     inkscape:groupmode="layer"
     id="layer1"
     transform="translate(-160.37013,-176.34167)">
    <path
       inkscape:connector-curvature="0"
       style="fill:#f9f9f9;fill-opacity:1;stroke:none"
       d="m 212.40613,211.65987 35.225,8.4906 a 13.301014,13.301014 0 0 1 11.148,-6.0529 13.301014,13.301014 0 0 1 13.228,11.9293 l 35.224,8.4907 -2.078,8.6205 -4.253,-1.0253 20.452,45.6989 7.344,0 a 31.0357,16.963187 0 0 1 -15.518,14.6908 31.0357,16.963187 0 0 1 -31.035,0 31.0357,16.963187 0 0 1 -15.518,-14.6908 l 7.353,0 21.082,-47.1061 -25.132,-6.059 a 13.301014,13.301014 0 0 1 -6.715,5.2754 l 0,78.3668 57.638,0 0,17.7347 -124.143,0 0,-17.7347 57.638,0 0,-78.3651 a 13.301014,13.301014 0 0 1 -8.794,-11.1526 l -24.509,-5.9075 20.555,45.9284 7.517,0 a 31.0357,16.963187 0 0 1 -15.518,14.6908 31.0357,16.963187 0 0 1 -31.035,0 31.0357,16.963187 0 0 1 -15.518,-14.6908 l 8.122,0 21.074,-47.0862 -5.912,-1.4254 2.078,-8.6205 z m 5.976,16.1119 -18.358,41.0202 18.056,0 18.661,0 -18.359,-41.0202 z m 79.283,17.9668 -18.83,42.0731 18.826,0 18.834,0 -18.83,-42.0731 z"
       id="path5939-7" />
  </g>
</svg>
