<?xml version="1.0" encoding="UTF-8" standalone="no"?>
<!-- Created with Inkscape (http://www.inkscape.org/) -->

<svg
   xmlns:dc="http://purl.org/dc/elements/1.1/"
   xmlns:cc="http://creativecommons.org/ns#"
   xmlns:rdf="http://www.w3.org/1999/02/22-rdf-syntax-ns#"
   xmlns:svg="http://www.w3.org/2000/svg"
   xmlns="http://www.w3.org/2000/svg"
   xmlns:sodipodi="http://sodipodi.sourceforge.net/DTD/sodipodi-0.dtd"
   xmlns:inkscape="http://www.inkscape.org/namespaces/inkscape"
   width="85.362419"
   height="85.257828"
   id="svg2"
   version="1.1"
   inkscape:version="0.48.5 r10040"
   sodipodi:docname="NIGHT.svg">
  <defs
     id="defs4" />
  <sodipodi:namedview
     id="base"
     pagecolor="#ffffff"
     bordercolor="#666666"
     borderopacity="1.0"
     inkscape:pageopacity="0.0"
     inkscape:pageshadow="2"
     inkscape:zoom="1.979899"
     inkscape:cx="63.439548"
     inkscape:cy="23.493898"
     inkscape:document-units="px"
     inkscape:current-layer="layer1"
     showgrid="false"
     fit-margin-top="0"
     fit-margin-left="0"
     fit-margin-right="0"
     fit-margin-bottom="0"
     inkscape:window-width="1920"
     inkscape:window-height="1013"
     inkscape:window-x="-9"
     inkscape:window-y="-9"
     inkscape:window-maximized="1" />
  <metadata
     id="metadata7">
    <rdf:RDF>
      <cc:Work
         rdf:about="">
        <dc:format>image/svg+xml</dc:format>
        <dc:type
           rdf:resource="http://purl.org/dc/dcmitype/StillImage" />
        <dc:title></dc:title>
      </cc:Work>
    </rdf:RDF>
  </metadata>
  <g
     inkscape:label="Layer 1"
     inkscape:groupmode="layer"
     id="layer1"
     transform="translate(-622.33008,-613.07232)">
    <g
       id="g4408-5-3-6"
       transform="matrix(0.67669486,0,0,0.67669486,-3235.3215,802.65298)"
       style="fill:#31706d;fill-opacity:1">
      <path
         inkscape:connector-curvature="0"
         d="m 5734.7354,-237.18054 c 2.3188,-3.40099 5.4107,-6.33822 8.8117,-8.81167 l -15.4591,-15.45909 c -2.4735,-2.47345 -6.3382,-2.47345 -8.8117,0 -2.4735,2.47346 -2.4735,6.33823 0,8.81168 l 15.4591,15.45908 z"
         id="path4316-0-8-0"
         style="fill:#31706d;fill-opacity:1" />
      <path
         inkscape:connector-curvature="0"
         d="m 5792.8615,-237.18054 15.4591,-15.45908 c 2.4735,-2.47345 2.4735,-6.33822 0,-8.81168 -2.4734,-2.47345 -6.3382,-2.47345 -8.8117,0 l -15.459,15.45909 c 3.5555,2.47345 6.4928,5.41068 8.8116,8.81167 z"
         id="path4318-2-0-1"
         style="fill:#31706d;fill-opacity:1" />
      <path
         inkscape:connector-curvature="0"
         d="m 5728.2426,-216.77455 c 0,-2.16427 0.1546,-4.48313 0.6183,-6.49281 h -21.9519 c -3.401,0 -6.1836,2.78263 -6.1836,6.18363 0,3.401 2.7826,6.18363 6.1836,6.18363 h 21.7973 c -0.3091,-2.00968 -0.4637,-3.86477 -0.4637,-5.87445 z"
         id="path4320-8-1-6"
         style="fill:#31706d;fill-opacity:1" />
      <path
         inkscape:connector-curvature="0"
         d="m 5763.7985,-252.33044 c 2.1642,0 4.1739,0.15459 6.1836,0.61837 v -22.26108 c 0,-3.401 -2.7826,-6.18364 -6.1836,-6.18364 -3.401,0 -6.1837,2.78264 -6.1837,6.18364 v 22.26108 c 2.0097,-0.46378 4.0194,-0.61837 6.1837,-0.61837 z"
         id="path4322-6-2-5"
         style="fill:#31706d;fill-opacity:1" />
      <path
         inkscape:connector-curvature="0"
         d="m 5734.7354,-196.36855 -15.4591,15.45908 c -2.4735,2.47346 -2.4735,6.33823 0,8.81168 1.2367,1.08214 2.7826,1.7005 4.3285,1.7005 1.546,0 3.0919,-0.61836 4.3286,-1.85509 l 15.4591,-15.45909 c -3.401,-2.31886 -6.3383,-5.25608 -8.6571,-8.65708 z"
         id="path4324-0-5-7"
         style="fill:#31706d;fill-opacity:1" />
      <path
         inkscape:connector-curvature="0"
         d="m 5820.6879,-223.26736 h -21.9519 c 0.4638,2.16427 0.6183,4.32854 0.6183,6.49281 0,2.00968 -0.1545,3.86477 -0.4637,5.87445 h 21.7973 c 3.401,0 6.1836,-2.78263 6.1836,-6.18363 0,-3.401 -2.7826,-6.18363 -6.1836,-6.18363 z"
         id="path4326-2-0-5"
         style="fill:#31706d;fill-opacity:1" />
      <path
         inkscape:connector-curvature="0"
         d="m 5792.8615,-196.36855 c -2.3188,3.401 -5.4106,6.33822 -8.8116,8.81168 l 15.459,15.45908 c 1.3914,1.08214 2.9373,1.7005 4.4832,1.7005 1.5459,0 3.0918,-0.61836 4.3285,-1.85509 2.4735,-2.47345 2.4735,-6.33823 0,-8.81168 l -15.4591,-15.30449 z"
         id="path4328-4-9-4"
         style="fill:#31706d;fill-opacity:1" />
      <path
         inkscape:connector-curvature="0"
         d="m 5763.7985,-181.21865 c -2.1643,0 -4.174,-0.15459 -6.1837,-0.61836 v 21.48812 c 0,3.401 2.7827,6.18364 6.1837,6.18364 3.401,0 6.1836,-2.78264 6.1836,-6.18364 v -21.48812 c -2.0097,0.46377 -4.0194,0.61836 -6.1836,0.61836 z"
         id="path4330-8-4-1"
         style="fill:#31706d;fill-opacity:1" />
      <circle
         d="m 66,50 c 0,8.836556 -7.163444,16 -16,16 -8.836556,0 -16,-7.163444 -16,-16 0,-8.836556 7.163444,-16 16,-16 8.836556,0 16,7.163444 16,16 z"
         sodipodi:ry="16"
         sodipodi:rx="16"
         sodipodi:cy="50"
         sodipodi:cx="50"
         cx="50"
         cy="50"
         r="16"
         id="circle4332-6-7-2"
         transform="matrix(1.5459083,0,0,1.5459083,5686.503,-294.06996)"
         style="fill:#31706d;fill-opacity:1" />
    </g>
  </g>
</svg>
