<?xml version="1.0" encoding="UTF-8" standalone="no"?>
<!-- Created with Inkscape (http://www.inkscape.org/) -->

<svg
   xmlns:dc="http://purl.org/dc/elements/1.1/"
   xmlns:cc="http://creativecommons.org/ns#"
   xmlns:rdf="http://www.w3.org/1999/02/22-rdf-syntax-ns#"
   xmlns:svg="http://www.w3.org/2000/svg"
   xmlns="http://www.w3.org/2000/svg"
   xmlns:sodipodi="http://sodipodi.sourceforge.net/DTD/sodipodi-0.dtd"
   xmlns:inkscape="http://www.inkscape.org/namespaces/inkscape"
   width="195"
   height="195"
   id="svg2"
   version="1.1"
   inkscape:version="0.48.5 r10040"
   sodipodi:docname="COINS.svg">
  <defs
     id="defs4" />
  <sodipodi:namedview
     id="base"
     pagecolor="#ffffff"
     bordercolor="#666666"
     borderopacity="1.0"
     inkscape:pageopacity="0.0"
     inkscape:pageshadow="2"
     inkscape:zoom="2.8"
     inkscape:cx="96.464024"
     inkscape:cy="88.971706"
     inkscape:document-units="px"
     inkscape:current-layer="layer1"
     showgrid="false"
     fit-margin-top="0"
     fit-margin-left="0"
     fit-margin-right="0"
     fit-margin-bottom="0"
     inkscape:window-width="2048"
     inkscape:window-height="1085"
     inkscape:window-x="1911"
     inkscape:window-y="363"
     inkscape:window-maximized="1" />
  <metadata
     id="metadata7">
    <rdf:RDF>
      <cc:Work
         rdf:about="">
        <dc:format>image/svg+xml</dc:format>
        <dc:type
           rdf:resource="http://purl.org/dc/dcmitype/StillImage" />
        <dc:title></dc:title>
      </cc:Work>
    </rdf:RDF>
  </metadata>
  <g
     inkscape:label="Layer 1"
     inkscape:groupmode="layer"
     id="layer1"
     transform="translate(-160.37013,-176.34167)">
    <g
       id="g3021"
       transform="translate(184.62997,200.65466)">
      <path
         id="path3023"
         d="M 39.507874,49.925195 C 42.200787,45.992124 45.779527,42.59055 49.712598,39.720471 L 31.783464,21.755905 c -2.870078,-2.870079 -7.370078,-2.870079 -10.240157,0 -2.870079,2.870078 -2.870079,7.370078 0,10.240157 l 17.964567,17.929133 z"
         style="fill:#f9f9f9;fill-opacity:1;fill-rule:nonzero;stroke:none"
         inkscape:connector-curvature="0" />
      <path
         id="path3025"
         d="m 106.97244,49.925195 17.96457,-17.929133 c 2.87008,-2.870079 2.87008,-7.370079 0,-10.240157 -2.87008,-2.870079 -7.37008,-2.870079 -10.24016,0 L 96.767716,39.720471 c 4.110234,2.870079 7.511814,6.271653 10.204724,10.204724 z"
         style="fill:#f9f9f9;fill-opacity:1;fill-rule:nonzero;stroke:none"
         inkscape:connector-curvature="0" />
      <path
         id="path3027"
         d="m 31.96063,73.629919 c 0,-2.515748 0.177165,-5.208662 0.708661,-7.547244 l -25.4763777,0 C 3.2244094,66.082675 0,69.342517 0,73.275588 c 0,3.933071 3.2244094,7.192913 7.1929133,7.192913 l 25.2992127,0 c -0.354331,-2.338583 -0.531496,-4.5 -0.531496,-6.838582 z"
         style="fill:#f9f9f9;fill-opacity:1;fill-rule:nonzero;stroke:none"
         inkscape:connector-curvature="0" />
      <path
         id="path3029"
         d="m 73.240157,32.350393 c 2.515748,0 4.854331,0.177165 7.192913,0.708661 l 0,-25.8307078 c 0,-3.9685038 -3.259842,-7.19291313 -7.192913,-7.19291313 -3.933071,0 -7.192913,3.22440933 -7.192913,7.19291313 l 0,25.8307078 c 2.338582,-0.531496 4.677165,-0.708661 7.192913,-0.708661 z"
         style="fill:#f9f9f9;fill-opacity:1;fill-rule:nonzero;stroke:none"
         inkscape:connector-curvature="0" />
      <path
         id="path3031"
         d="M 39.507874,97.334642 21.543307,115.29921 c -2.870079,2.87008 -2.870079,7.33464 0,10.20472 1.417323,1.27559 3.224409,1.98425 5.031496,1.98425 1.771654,0 3.57874,-0.70866 5.031496,-2.16141 l 17.929134,-17.92914 c -3.933071,-2.69291 -7.334646,-6.12992 -10.027559,-10.062988 z"
         style="fill:#f9f9f9;fill-opacity:1;fill-rule:nonzero;stroke:none"
         inkscape:connector-curvature="0" />
      <path
         id="path3033"
         d="m 139.2874,66.082675 -25.47638,0 c 0.5315,2.515748 0.70866,5.031496 0.70866,7.547244 0,2.338582 -0.17716,4.499999 -0.53149,6.838582 l 25.29921,0 c 3.9685,0 7.19291,-3.259842 7.19291,-7.192913 0,-3.933071 -3.22441,-7.192913 -7.19291,-7.192913 z"
         style="fill:#f9f9f9;fill-opacity:1;fill-rule:nonzero;stroke:none"
         inkscape:connector-curvature="0" />
      <path
         id="path3035"
         d="m 106.97244,97.334642 c -2.69291,3.933068 -6.27165,7.370078 -10.204724,10.240158 l 17.929134,17.92913 c 1.62992,1.27559 3.43701,1.98425 5.20866,1.98425 1.80709,0 3.61417,-0.70866 5.0315,-2.16141 2.87008,-2.87008 2.87008,-7.33465 0,-10.24016 L 106.97244,97.334642 z"
         style="fill:#f9f9f9;fill-opacity:1;fill-rule:nonzero;stroke:none"
         inkscape:connector-curvature="0" />
      <path
         id="path3037"
         d="m 73.240157,114.90944 c -2.515748,0 -4.854331,-0.17716 -7.192913,-0.70866 l 0,24.94488 c 0,3.96851 3.259842,7.19292 7.192913,7.19292 3.933071,0 7.192913,-3.22441 7.192913,-7.19292 l 0,-24.94488 c -2.338582,0.5315 -4.677165,0.70866 -7.192913,0.70866 z"
         style="fill:#f9f9f9;fill-opacity:1;fill-rule:nonzero;stroke:none"
         inkscape:connector-curvature="0" />
      <path
         id="path3039"
         d="m 101.97638,73.629919 c 0,15.874015 -12.862207,28.736221 -28.736223,28.736221 -15.874016,0 -28.73622,-12.862206 -28.73622,-28.736221 0,-15.874016 12.862204,-28.700787 28.73622,-28.700787 15.874016,0 28.736223,12.826771 28.736223,28.700787 z"
         style="fill:#f9f9f9;fill-opacity:1;fill-rule:nonzero;stroke:none"
         inkscape:connector-curvature="0" />
    </g>
  </g>
</svg>
