<?xml version="1.0" encoding="UTF-8" standalone="no"?>
<!-- Created with Inkscape (http://www.inkscape.org/) -->

<svg
   xmlns:dc="http://purl.org/dc/elements/1.1/"
   xmlns:cc="http://creativecommons.org/ns#"
   xmlns:rdf="http://www.w3.org/1999/02/22-rdf-syntax-ns#"
   xmlns:svg="http://www.w3.org/2000/svg"
   xmlns="http://www.w3.org/2000/svg"
   xmlns:sodipodi="http://sodipodi.sourceforge.net/DTD/sodipodi-0.dtd"
   xmlns:inkscape="http://www.inkscape.org/namespaces/inkscape"
   width="198.01636"
   height="166.68355"
   id="svg2"
   version="1.1"
   inkscape:version="0.48.5 r10040"
   sodipodi:docname="New document 1">
  <defs
     id="defs4" />
  <sodipodi:namedview
     id="base"
     pagecolor="#ffffff"
     bordercolor="#666666"
     borderopacity="1.0"
     inkscape:pageopacity="0.0"
     inkscape:pageshadow="2"
     inkscape:zoom="1.979899"
     inkscape:cx="171.72526"
     inkscape:cy="92.286508"
     inkscape:document-units="px"
     inkscape:current-layer="layer1"
     showgrid="false"
     fit-margin-top="0"
     fit-margin-left="0"
     fit-margin-right="0"
     fit-margin-bottom="0"
     inkscape:window-width="1920"
     inkscape:window-height="1013"
     inkscape:window-x="-9"
     inkscape:window-y="-9"
     inkscape:window-maximized="1" />
  <metadata
     id="metadata7">
    <rdf:RDF>
      <cc:Work
         rdf:about="">
        <dc:format>image/svg+xml</dc:format>
        <dc:type
           rdf:resource="http://purl.org/dc/dcmitype/StillImage" />
        <dc:title></dc:title>
      </cc:Work>
    </rdf:RDF>
  </metadata>
  <g
     inkscape:label="Layer 1"
     inkscape:groupmode="layer"
     id="layer1"
     transform="translate(-643.84897,-509.02041)">
    <g
       id="g4663-7-8"
       transform="matrix(0.15584536,0,0,0.15584536,-1413.0617,408.59768)"
       style="fill:#4d4d4d;fill-opacity:1">
      <g
         transform="matrix(7.1284436,0,0,7.1284436,9818.8843,-890.4795)"
         id="g4301-8-6-7-3"
         style="fill:#4d4d4d;fill-opacity:1">
        <path
           id="path4303-2-8-7-7"
           d="m 593.935,330.612 c 0,6.222 13.076,11.263 29.203,11.263 16.126,0 29.195,-5.041 29.195,-11.263"
           inkscape:connector-curvature="0"
           style="fill:#4d4d4d;fill-opacity:1" />
      </g>
      <g
         transform="matrix(7.1284436,0,0,7.1284436,9818.8843,-890.4795)"
         id="g4305-4-5-7-1"
         style="fill:#4d4d4d;fill-opacity:1">
        <path
           id="path4307-5-7-3-0"
           d="m 624.639,250.255 c 2.575,-0.673 4.488,-3.008 4.488,-5.79 h -4.098 c 0,1.045 -0.853,1.895 -1.89,1.895 -1.045,0 -1.898,-0.85 -1.898,-1.895 0,-1.044 0.854,-1.893 1.898,-1.893 v -4.096 h -57.88 V 230.8 c 3.355,-0.903 5.834,-3.965 5.834,-7.601 0,-4.348 -3.534,-7.885 -7.883,-7.885 -4.344,0 -7.882,3.536 -7.882,7.885 0,3.636 2.481,6.697 5.837,7.601 v 7.677 h -57.878 v 4.096 c 1.045,0 1.895,0.849 1.895,1.893 0,1.045 -0.85,1.895 -1.895,1.895 -1.042,0 -1.895,-0.85 -1.895,-1.895 h -4.096 c 0,2.782 1.911,5.117 4.482,5.79 l -27.178,78.45 h 1.732 l 26.921,-77.7 26.927,77.717 1.728,-0.017 -27.175,-78.437 c 2.604,-0.649 4.541,-3.003 4.541,-5.805 0,-0.662 -0.11,-1.297 -0.31,-1.893 h 52.199 v 111.997 h 4.092 V 242.572 h 52.202 c -0.2,0.596 -0.309,1.23 -0.309,1.893 0,2.804 1.938,5.155 4.54,5.805 l -27.171,78.437 1.728,0.017 26.925,-77.717 26.921,77.7 h 1.734 l -27.186,-78.452 z m -66.854,-27.056 c 0,-2.996 2.435,-5.428 5.424,-5.428 2.994,0 5.428,2.432 5.428,5.428 0,2.413 -1.585,4.461 -3.77,5.163 l -1.656,-7.751 -1.655,7.751 c -2.185,-0.702 -3.771,-2.751 -3.771,-5.163"
           inkscape:connector-curvature="0"
           style="fill:#4d4d4d;fill-opacity:1" />
      </g>
      <g
         transform="matrix(7.1284436,0,0,7.1284436,9818.8843,-890.4795)"
         id="g4309-5-6-3-7"
         style="fill:#4d4d4d;fill-opacity:1">
        <rect
           id="rect4311-1-1-5-3"
           height="4.099"
           width="47.300999"
           y="361.254"
           x="539.56299"
           style="fill:#4d4d4d;fill-opacity:1" />
      </g>
      <g
         transform="matrix(7.1284436,0,0,7.1284436,9818.8843,-890.4795)"
         id="g4313-7-8-9-4"
         style="fill:#4d4d4d;fill-opacity:1">
        <rect
           id="rect4315-1-9-9-9"
           height="4.0949998"
           width="33.168999"
           y="355.798"
           x="546.62799"
           style="fill:#4d4d4d;fill-opacity:1" />
      </g>
      <g
         transform="matrix(7.1284436,0,0,7.1284436,9818.8843,-890.4795)"
         id="g4317-1-2-8-6"
         style="fill:#4d4d4d;fill-opacity:1">
        <path
           id="path4319-5-7-1-5"
           d="m 512.354,330.612 c -1.304,0.638 -2.761,1.005 -4.306,1.005 -1.544,0 -3.01,-0.358 -4.312,-0.995 -1.673,0.633 -3.689,0.995 -5.875,0.995 -2.182,0 -4.177,-0.37 -5.849,-1.005 H 474.09 c 0,6.222 13.074,11.263 29.197,11.263 16.127,0 29.201,-5.041 29.201,-11.263 h -20.134 z"
           inkscape:connector-curvature="0"
           style="fill:#4d4d4d;fill-opacity:1" />
      </g>
      <g
         transform="matrix(7.1284436,0,0,7.1284436,9818.8843,-890.4795)"
         id="g4321-2-9-8-1"
         style="fill:#4d4d4d;fill-opacity:1">
        <path
           id="path4323-7-5-2-0"
           d="m 517.906,320.09 c 0,-5.434 -4.426,-9.857 -9.857,-9.857 0.015,-0.922 -0.01,-1.32 -0.01,-1.97 -0.253,-1.89 -1.892,-3.14 -3.244,-3.832 -1.841,-0.92 -4.265,-1.447 -6.931,-1.447 -2.668,0 -5.091,0.527 -6.932,1.447 -1.692,0.768 -3.044,2.197 -3.254,3.832 v 16.098 c 0,1.804 1.399,3.205 3.244,4.127 0.339,0.17 0.718,0.311 1.093,0.454 h 20.338 c 3.28,-1.603 5.553,-4.964 5.553,-8.852 m -26.121,-13.861 c 1.49,-0.746 3.666,-1.253 6.079,-1.253 2.413,0 4.587,0.507 6.077,1.253 1.304,0.651 1.979,1.423 2.126,2.082 0.131,1.179 -1.143,2.14 -2.126,2.629 -1.49,0.746 -3.664,1.253 -6.077,1.253 -2.413,0 -4.589,-0.507 -6.079,-1.253 -1.018,-0.635 -2.144,-1.223 -2.136,-2.534 0.102,-0.681 0.771,-1.495 2.136,-2.177 m -2.136,5.73 c 0.392,0.287 0.824,0.55 1.283,0.78 1.841,0.918 4.264,1.447 6.932,1.447 0.841,0 1.651,-0.063 2.433,-0.163 -0.499,0.636 -0.92,1.334 -1.253,2.082 -0.385,0.029 -0.78,0.042 -1.18,0.042 -2.408,0 -4.584,-0.502 -6.068,-1.243 -1.487,-0.741 -2.146,-1.635 -2.146,-2.371 v -0.574 z m 0,3.931 c 0.386,0.284 0.81,0.544 1.264,0.771 1.844,0.924 4.278,1.459 6.951,1.459 0.181,0 0.355,-0.005 0.533,-0.012 -0.132,0.642 -0.205,1.304 -0.205,1.982 -0.109,0.004 -0.217,0 -0.328,0 -2.408,0 -4.584,-0.499 -6.068,-1.243 -1.487,-0.742 -2.146,-1.632 -2.146,-2.373 v -0.584 z m 0,3.942 c 0.389,0.287 0.817,0.542 1.273,0.771 1.845,0.922 4.269,1.459 6.941,1.459 0.18,0 0.357,-0.005 0.533,-0.01 0.138,0.672 0.34,1.321 0.605,1.938 -0.372,0.026 -0.752,0.041 -1.139,0.041 -2.408,0 -4.584,-0.5 -6.068,-1.242 -1.487,-0.741 -2.146,-1.634 -2.146,-2.369 v -0.588 z m 8.215,8.144 c -2.407,0 -4.572,-0.51 -6.059,-1.254 -1.485,-0.742 -2.156,-1.625 -2.156,-2.361 v -0.586 c 0.386,0.284 0.81,0.545 1.264,0.771 1.844,0.924 4.278,1.459 6.951,1.459 0.759,0 1.495,-0.049 2.208,-0.134 0.448,0.617 0.973,1.175 1.549,1.674 -1.125,0.27 -2.407,0.431 -3.757,0.431 m 2.299,-7.886 c 0,-4.366 3.521,-7.885 7.886,-7.885 4.366,0 7.887,3.519 7.887,7.885 0,4.367 -3.521,7.886 -7.887,7.886 -4.365,0 -7.886,-3.519 -7.886,-7.886"
           inkscape:connector-curvature="0"
           style="fill:#4d4d4d;fill-opacity:1" />
      </g>
      <g
         transform="matrix(7.1284436,0,0,7.1284436,9818.8843,-890.4795)"
         id="g4325-6-4-6-9"
         style="fill:#4d4d4d;fill-opacity:1">
        <path
           id="path4327-1-3-6-9"
           d="m 503.737,328.951 c 1.302,0.636 2.768,0.995 4.313,0.995 1.544,0 3.001,-0.369 4.304,-1.005 h -20.338 c 1.67,0.633 3.667,1.005 5.847,1.005 2.185,0 4.201,-0.362 5.874,-0.995"
           inkscape:connector-curvature="0"
           style="fill:#4d4d4d;fill-opacity:1" />
      </g>
      <path
         id="path4331-2-1-0-6"
         d="m 14243.149,1249.5373 c -3.665,0.3992 -6.331,3.677 -5.938,7.3125 0.356,3.4002 3.21,5.9687 6.625,5.9687 l 1.313,-0.062 15.531,0 0,20.7188 -5.188,0.6875 c -22.954,3.0367 -43.574,14.3275 -58.437,31.9062 l 8.687,10.4063 c 14.015,-17.6643 35.385,-28.6654 58.125,-29.6563 43.968,-1.5825 79.946,31.7929 81.813,75.0625 0.905,20.9505 -6.391,41.0143 -20.563,56.4688 -14.178,15.4616 -33.543,24.4625 -54.5,25.375 -43.691,1.7393 -79.944,-31.7929 -81.812,-75.0625 l -0.25,-6.2188 15.344,0 -21.532,-25.9062 -22.375,25.9062 9.531,-0.094 5.876,0 0.09,5.875 c 0.777,49.835 41.96,90.375 91.781,90.375 l 1.438,-0.031 c 24.515,-0.3849 47.42,-10.2606 64.5,-27.875 17.066,-17.6143 26.229,-40.8219 25.844,-65.3437 0.06,-20.0737 -6.627,-39.7686 -18.782,-55.5938 l -3.187,-4.1562 14.563,-14.5313 c 1.79,-1.8961 2.384,-3.5929 2.312,-5.375 -0.08,-1.7749 -0.807,-3.3961 -2.125,-4.5937 -2.609,-2.4237 -7.01,-2.2554 -9.406,0.375 l -14.657,14.6875 -4.156,-3.25 c -12.852,-10.0654 -28.255,-16.5079 -44.5,-18.625 l -5.187,-0.6875 0,-20.75 15.5,0 c 4.498,-0.1497 7.344,-3.2592 7.187,-6.9375 -0.15,-3.55 -3.075,-6.3438 -6.625,-6.3438 l -45.062,0 -1.781,-0.031 z m 59.437,88.3437 c -0.409,0 -0.819,0.1927 -1.25,0.5313 l -29.781,23.7187 -2.532,-0.375 c -0.647,-0.1 -1.31,-0.125 -1.937,-0.125 -6.765,0 -12.59,5.0734 -13.531,11.7813 -1.041,7.4706 4.217,14.3967 11.687,15.4375 7.35,1.0407 14.381,-4.314 15.407,-11.6563 0.184,-1.2688 0.184,-2.5239 0,-3.75 l -0.376,-2.5312 23.782,-29.8438 c 0.506,-0.6415 0.565,-1.4861 0.187,-2.1562 l -0.343,-0.3438 c -0.499,-0.4918 -0.904,-0.6848 -1.313,-0.6875 z"
         style="fill:#4d4d4d;fill-opacity:1"
         inkscape:connector-curvature="0" />
    </g>
  </g>
</svg>
