<?xml version="1.0" encoding="UTF-8" standalone="no"?>
<!-- Created with Inkscape (http://www.inkscape.org/) -->

<svg
   xmlns:dc="http://purl.org/dc/elements/1.1/"
   xmlns:cc="http://creativecommons.org/ns#"
   xmlns:rdf="http://www.w3.org/1999/02/22-rdf-syntax-ns#"
   xmlns:svg="http://www.w3.org/2000/svg"
   xmlns="http://www.w3.org/2000/svg"
   xmlns:sodipodi="http://sodipodi.sourceforge.net/DTD/sodipodi-0.dtd"
   xmlns:inkscape="http://www.inkscape.org/namespaces/inkscape"
   width="211.21745"
   height="177.79579"
   id="svg2"
   version="1.1"
   inkscape:version="0.92.2 (5c3e80d, 2017-08-06)"
   sodipodi:docname="ZYGOS.svg">
  <defs
     id="defs4" />
  <sodipodi:namedview
     id="base"
     pagecolor="#ffffff"
     bordercolor="#666666"
     borderopacity="1.0"
     inkscape:pageopacity="0.0"
     inkscape:pageshadow="2"
     inkscape:zoom="1.979899"
     inkscape:cx="122.73286"
     inkscape:cy="72.083457"
     inkscape:document-units="px"
     inkscape:current-layer="layer1"
     showgrid="false"
     fit-margin-top="0"
     fit-margin-left="0"
     fit-margin-right="0"
     fit-margin-bottom="0"
     inkscape:window-width="2048"
     inkscape:window-height="1085"
     inkscape:window-x="1699"
     inkscape:window-y="74"
     inkscape:window-maximized="1" />
  <metadata
     id="metadata7">
    <rdf:RDF>
      <cc:Work
         rdf:about="">
        <dc:format>image/svg+xml</dc:format>
        <dc:type
           rdf:resource="http://purl.org/dc/dcmitype/StillImage" />
        <dc:title></dc:title>
      </cc:Work>
    </rdf:RDF>
  </metadata>
  <g
     inkscape:label="Layer 1"
     inkscape:groupmode="layer"
     id="layer1"
     transform="translate(-686.77223,-542.9551)">
    <path
       style="fill:#4d4d4d;fill-opacity:1;stroke-width:1.17080796"
       d="m 792.37682,544.01953 c -5.08568,0 -9.22745,4.13937 -9.22745,9.23121 0,4.25705 2.90463,7.84147 6.83361,8.89989 v 8.98789 H 722.2184 v 4.79563 c 1.22407,0 2.2187,0.99456 2.2187,2.21689 0,1.22351 -0.99463,2.21868 -2.2187,2.21868 -1.21969,0 -2.21749,-0.99517 -2.21749,-2.21868 h -4.796 c 0,3.2572 2.23692,5.99024 5.24735,6.77818 l -31.82012,91.85064 h 2.02848 l 31.51816,-90.97251 31.52689,90.99226 2.02333,-0.0197 -31.81695,-91.83449 c 3.04887,-0.75987 5.3163,-3.51643 5.3163,-6.79703 0,-0.77508 -0.12839,-1.51821 -0.36258,-2.216 H 789.981 v 131.12709 h 4.79045 V 575.93325 h 61.11878 c -0.23419,0.69781 -0.36179,1.43975 -0.36179,2.216 0,3.28294 2.26901,6.036 5.31551,6.79704 l -31.8122,91.83448 2.02254,0.0197 31.5245,-90.99135 31.51935,90.9716 h 2.03005 l -31.82921,-91.85243 c 3.01518,-0.78797 5.25446,-3.5219 5.25446,-6.77908 h -4.79717 c 0,1.22348 -0.99978,2.21868 -2.21353,2.21868 -1.22406,0 -2.22267,-0.9952 -2.22267,-2.21868 0,-1.22233 1.00018,-2.216 2.22267,-2.216 v -4.79564 h -67.76655 v -8.98698 c 3.92779,-1.05724 6.83123,-4.64285 6.83123,-8.8999 0,-5.09067 -4.13859,-9.23121 -9.2306,-9.23121 z m 0,2.87683 c 3.50537,0 6.3557,2.84663 6.3557,6.35438 0,2.82516 -1.85611,5.22359 -4.4144,6.0455 l -1.93852,-9.07499 -1.93775,9.07499 c -2.5579,-0.82191 -4.41559,-3.22152 -4.41559,-6.0455 0,-3.50774 2.85073,-6.35438 6.35056,-6.35438 z m 67.25059,96.51787 c -0.60073,0.0665 -1.03862,0.60396 -0.97402,1.20049 0.0586,0.55848 0.52704,0.9805 1.08814,0.9805 l 0.21596,-0.009 h 2.54997 v 3.403 l -0.85077,0.11314 c -3.77047,0.49874 -7.15736,2.35288 -9.59874,5.2401 l 1.42656,1.70867 c 2.30229,-2.90126 5.81242,-4.70741 9.54761,-4.87015 7.22113,-0.25992 13.12984,5.22123 13.43656,12.32803 0.14899,3.441 -1.04892,6.7369 -3.37659,9.27522 -2.32886,2.53947 -5.50966,4.01724 -8.95201,4.16711 -7.17598,0.28567 -13.12986,-5.22126 -13.43697,-12.32804 l -0.0412,-1.0218 h 2.51906 l -3.53548,-4.25512 -3.67497,4.25512 1.56564,-0.0153 h 0.96452 l 0.0159,0.96523 c 0.12799,8.18513 6.89185,14.84304 15.07473,14.84304 l 0.23578,-0.005 c 4.02646,-0.0632 7.78818,-1.68528 10.59334,-4.57835 2.8028,-2.89305 4.309,-6.7049 4.2456,-10.73248 0.007,-3.29699 -1.08895,-6.53146 -3.08533,-9.13066 l -0.52347,-0.6833 2.39186,-2.38659 c 0.29404,-0.31142 0.39151,-0.58993 0.37962,-0.88262 -0.0118,-0.29151 -0.13235,-0.55753 -0.3487,-0.75423 -0.42877,-0.39808 -1.15156,-0.37099 -1.54584,0.0611 l -2.40691,2.41263 -0.68238,-0.53425 c -2.1109,-1.65319 -4.64105,-2.71138 -7.3091,-3.05911 l -0.85157,-0.11224 v -3.40839 h 2.5464 c 0.73862,-0.0245 1.20503,-0.53529 1.17927,-1.13941 -0.0238,-0.58308 -0.50406,-1.04156 -1.08693,-1.04156 h -7.40145 l -0.29087,-0.005 z m -143.75876,3.24948 c -3.12375,0 -5.96102,0.61718 -8.11631,1.69431 -1.98092,0.89918 -3.5648,2.5725 -3.81048,4.48676 v 18.84764 c 0,2.11212 1.63896,3.75205 3.79899,4.83155 0.39706,0.19902 0.84048,0.36411 1.27954,0.53155 h 0.007 c 1.95478,0.74052 4.29154,1.17624 6.8431,1.17624 2.55751,0 4.91844,-0.42434 6.87679,-1.16547 1.52444,0.74464 3.24145,1.16547 5.05042,1.16547 1.80775,0 3.51367,-0.4325 5.03889,-1.17715 v 0 c 3.83982,-1.87715 6.50114,-5.81116 6.50114,-10.36255 v 0 c 0,-6.36216 -5.18196,-11.54059 -11.54083,-11.54059 0.0199,-1.07949 -0.0119,-1.54566 -0.0119,-2.30669 -0.29642,-2.21282 -2.21633,-3.67656 -3.799,-4.48676 -2.15569,-1.07713 -4.99294,-1.69431 -8.11432,-1.69431 z m 0,2.33271 c 2.82499,0 5.3702,0.59373 7.11455,1.46715 1.52682,0.7622 2.31696,1.66623 2.48895,2.43778 0.15375,1.3804 -1.3382,2.50544 -2.48895,3.07798 -1.74435,0.87342 -4.28956,1.46624 -7.11455,1.46624 -2.82497,0 -5.37296,-0.59282 -7.11771,-1.46624 -1.19157,-0.74346 -2.50956,-1.43261 -2.50044,-2.96754 0.11966,-0.79731 0.90229,-1.74973 2.50044,-2.54822 1.74475,-0.87342 4.29274,-1.46715 7.11771,-1.46715 z m -9.61736,8.1762 c 0.45888,0.33574 0.96412,0.64316 1.50105,0.91226 2.15529,1.0748 4.99256,1.69432 8.11631,1.69432 0.98472,0 1.93258,-0.0733 2.84797,-0.19035 -0.58369,0.74462 -1.07705,1.562 -1.46698,2.43777 -0.45054,0.034 -0.9126,0.0484 -1.38099,0.0484 -2.81942,0 -5.36701,-0.58792 -7.10503,-1.45549 -1.7408,-0.86756 -2.51233,-1.91366 -2.51233,-2.77538 z m 21.54139,0.28732 c 5.11143,0 9.23456,4.12038 9.23456,9.23212 0,5.11293 -4.12313,9.23301 -9.23456,9.23301 -5.11104,0 -9.23338,-4.12008 -9.23338,-9.23301 0,-5.11174 4.12234,-9.23212 9.23338,-9.23212 z m 141.5983,0.46422 c -0.0675,0 -0.13473,0.0314 -0.20567,0.0871 l -4.89107,3.89594 -0.4153,-0.062 c -0.1062,-0.0165 -0.21636,-0.0207 -0.31899,-0.0207 -1.11113,0 -2.06811,0.83322 -2.22226,1.93496 -0.17118,1.22701 0.69268,2.3647 1.91952,2.53564 1.20741,0.17093 2.36174,-0.70836 2.53054,-1.91431 0.0317,-0.20838 0.0317,-0.41457 0,-0.61595 l -0.0622,-0.41572 3.90676,-4.90159 c 0.0831,-0.10537 0.0931,-0.2446 0.0316,-0.35466 l -0.0568,-0.0557 c -0.0817,-0.0809 -0.14819,-0.11272 -0.21556,-0.11313 z m -163.13969,3.85105 c 0.45135,0.33223 0.94747,0.6368 1.47887,0.90238 2.15963,1.08182 5.00878,1.70779 8.13849,1.70779 0.21201,0 0.4149,-0.005 0.62294,-0.0144 -0.15455,0.75165 -0.23935,1.52722 -0.23935,2.32104 -0.1276,0.005 -0.25322,0 -0.38359,0 -2.81942,0 -5.36701,-0.5844 -7.10503,-1.45548 -1.7408,-0.86875 -2.51233,-1.9105 -2.51233,-2.77808 z m 0,4.61426 v 0 c 0.45572,0.33603 0.95659,0.63516 1.49035,0.90328 2.16044,1.07948 4.99771,1.70779 8.12621,1.70779 0.21083,0 0.41768,-0.005 0.62374,-0.0116 0.16127,0.78677 0.39824,1.54659 0.70851,2.26896 -0.43589,0.0304 -0.88011,0.0484 -1.33343,0.0484 -2.81943,0 -5.36661,-0.58587 -7.10385,-1.4546 -1.7412,-0.86756 -2.51232,-1.91304 -2.51232,-2.77358 z m 0,4.61695 c 0.45174,0.33251 0.94826,0.63777 1.47965,0.90238 2.15966,1.08182 5.0088,1.7087 8.13851,1.7087 0.88882,0 1.7503,-0.0577 2.58523,-0.15713 0.52427,0.72239 1.13807,1.37586 1.81252,1.96008 -1.31718,0.31612 -2.81705,0.50462 -4.39775,0.50462 -2.81784,0 -5.35355,-0.59696 -7.09435,-1.46805 -1.7388,-0.86874 -2.52381,-1.9029 -2.52381,-2.7646 z m -18.21474,8.0047 c 0,7.28477 15.30694,13.18642 34.18345,13.18642 18.88164,0 34.18898,-5.90165 34.18898,-13.18642 h -23.57224 c -1.52641,0.74698 -3.23313,1.17624 -5.04168,1.17624 -1.80816,0 -3.52398,-0.41876 -5.04843,-1.16456 -1.95913,0.74112 -4.31929,1.16456 -6.87878,1.16456 -2.55471,0 -4.8907,-0.43277 -6.84865,-1.17624 z m 140.31481,0 c 0,7.28477 15.31012,13.18642 34.19177,13.18642 18.88044,0 34.18224,-5.90165 34.18224,-13.18642 h -25.55319 a 17.095644,16.917254 0 0 1 -7.58449,1.76525 17.095644,16.917254 0 0 1 -7.5568,-1.76525 z m -55.3868,29.48764 v 4.79472 h 38.83482 v -4.79472 z m -8.27125,6.38849 v 4.79922 h 55.38008 v -4.79922 z"
       id="path4303-2-8-7-7-3-5-2"
       inkscape:connector-curvature="0" />
  </g>
</svg>
